<svg width="522" height="93" viewBox="0 0 522 93" fill="none" xmlns="http://www.w3.org/2000/svg">
<path d="M480.533 70.1149V35.9305H488.592V40.0899H489.047C490.411 37.5553 493.791 35.0857 498.665 35.0857C506.334 35.0857 511.013 40.4798 511.013 47.7586V70.1149H502.564V49.9682C502.564 45.8089 499.9 43.0144 496 43.0144C491.906 43.0144 488.982 46.2638 488.982 50.5531V70.1149H480.533Z" fill="white"/>
<path d="M471.949 32.8887C468.895 32.8887 466.75 31.004 466.75 27.9495C466.75 25.025 468.895 23.0753 471.949 23.0753C475.004 23.0753 477.148 25.025 477.148 27.9495C477.148 31.004 475.004 32.8887 471.949 32.8887ZM467.725 70.1143V35.9299H476.173V70.1143H467.725Z" fill="white"/>
<path d="M433.956 70.9598C423.883 70.9598 416.734 63.421 416.734 53.2177C416.734 42.4295 423.948 35.0857 433.956 35.0857C444.939 35.0857 450.918 43.2093 450.918 52.8278V55.4923H424.923C425.183 60.6915 428.757 64.2009 434.216 64.2009C438.375 64.2009 441.56 62.2512 442.73 59.4567H450.593C448.904 66.4105 442.795 70.9598 433.956 70.9598ZM425.053 49.5133H442.86C442.47 44.8991 438.895 41.8446 433.956 41.8446C429.212 41.8446 425.572 45.224 425.053 49.5133Z" fill="white"/>
<path d="M377.282 82.8547V35.9305H385.6V40.2848H386.055C386.965 38.8551 390.084 35.0857 396.323 35.0857C405.877 35.0857 412.441 42.2345 412.441 52.8927C412.441 63.551 405.942 70.9598 396.583 70.9598C390.539 70.9598 387.29 67.5803 386.185 65.6956H385.73V82.8547H377.282ZM394.699 63.291C400.158 63.291 403.862 59.0667 403.862 53.0227C403.862 46.7838 400.158 42.7544 394.634 42.7544C389.045 42.7544 385.535 47.2387 385.535 53.0227C385.535 59.3917 389.435 63.291 394.699 63.291Z" fill="white"/>
<path d="M316.554 70.9598C306.48 70.9598 299.331 63.421 299.331 53.2177C299.331 42.4295 306.545 35.0857 316.554 35.0857C327.537 35.0857 333.516 43.2093 333.516 52.8278V55.4923H307.52C307.78 60.6915 311.354 64.2009 316.814 64.2009C320.973 64.2009 324.157 62.2512 325.327 59.4567H333.191C331.501 66.4105 325.392 70.9598 316.554 70.9598ZM307.65 49.5133H325.457C325.067 44.8991 321.493 41.8446 316.554 41.8446C311.809 41.8446 308.17 45.224 307.65 49.5133Z" fill="white"/>
<path d="M260.462 70.1141V62.1175L284.118 31.2735V30.8031H261.307V23.0753H294.906V31.0047L271.25 61.8488V62.3863H295.036V70.1141H260.462Z" fill="white"/>
<path d="M225.673 70.1149V35.9305H233.731V40.0899H234.186C235.551 37.5553 238.93 35.0857 243.805 35.0857C251.473 35.0857 256.153 40.4798 256.153 47.7586V70.1149H247.704V49.9682C247.704 45.8089 245.039 43.0144 241.14 43.0144C237.046 43.0144 234.121 46.2638 234.121 50.5531V70.1149H225.673Z" fill="white"/>
<path d="M204.413 70.9598C194.34 70.9598 187.191 63.421 187.191 53.2177C187.191 42.4295 194.405 35.0857 204.413 35.0857C215.396 35.0857 221.375 43.2093 221.375 52.8278V55.4923H195.38C195.64 60.6915 199.214 64.2009 204.673 64.2009C208.833 64.2009 212.017 62.2512 213.187 59.4567H221.051C219.361 66.4105 213.252 70.9598 204.413 70.9598ZM195.51 49.5133H213.317C212.927 44.8991 209.352 41.8446 204.413 41.8446C199.669 41.8446 196.03 45.224 195.51 49.5133Z" fill="white"/>
<path d="M147.739 82.8059V35.8112H156.057V40.2848H156.512C157.422 38.8551 160.542 35.0857 166.781 35.0857C176.334 35.0857 182.898 42.2345 182.898 52.8927C182.898 63.551 176.399 70.9598 167.04 70.9598C160.997 70.9598 157.747 67.5803 156.642 65.6956H156.187V82.8059H147.739ZM165.156 63.291C170.615 63.291 174.319 59.0667 174.319 53.0227C174.319 46.7838 170.615 42.7544 165.091 42.7544C159.502 42.7544 155.992 47.2387 155.992 53.0227C155.992 59.3917 159.892 63.291 165.156 63.291Z" fill="white"/>
<path d="M118.541 70.9596C104.263 70.9596 93.7572 60.5207 93.7572 46.5124C93.7572 32.6388 104.331 22.0652 118.608 22.0652C132.886 22.0652 143.46 32.7735 143.46 46.5124C143.46 60.386 132.819 70.9596 118.541 70.9596ZM118.608 62.4064C127.633 62.4064 134.098 55.6717 134.098 46.5124C134.098 37.4878 127.633 30.6184 118.608 30.6184C109.517 30.6184 103.051 37.4878 103.051 46.5124C103.051 55.6717 109.517 62.4064 118.608 62.4064Z" fill="white"/>
<rect x="455.215" y="22.8765" width="8.19647" height="47.2383" fill="white"/>
<path d="M337.813 82.854V35.9298H346.132V40.2841H346.587C347.496 38.8543 350.616 35.085 356.855 35.085C366.408 35.085 372.972 42.2338 372.972 52.892C372.972 63.5503 366.473 70.9591 357.115 70.9591C351.071 70.9591 347.821 67.5796 346.716 65.6949H346.262V82.854H337.813ZM355.23 63.2903C360.689 63.2903 364.394 59.066 364.394 53.022C364.394 46.783 360.689 42.7537 355.165 42.7537C349.576 42.7537 346.067 47.238 346.067 53.022C346.067 59.391 349.966 63.2903 355.23 63.2903Z" fill="white"/>
<path d="M10.4995 82.9224C18.5557 68.9835 25.4014 57.4879 34.1023 41.7324C37.1758 36.4158 42.4865 33.1122 49.0425 33.1122H59.3439L30.5759 82.9224H10.4995Z" fill="#2E99FF"/>
<path d="M10.5907 10.3589H72.404L61.8422 28.7742H10.5907V10.3589Z" fill="#4F56FA"/>
<path d="M41.5527 71.4535C43.8772 67.3443 47.6136 64.7914 52.8471 64.7914L72.4153 64.738V82.9238H34.921C37.2685 78.8978 39.3069 75.4237 41.5527 71.4535Z" fill="#09C2FF"/>
</svg>
